<svg width="95" height="52" viewBox="0 0 95 52" fill="none" xmlns="http://www.w3.org/2000/svg">
<rect x="0.5" y="0.5" width="94" height="51" rx="5.5" stroke="#2395FF"/>
<path d="M59 26.073C59 19.4037 53.629 14 47 14C40.371 14 35 19.4037 35 26.073C35 32.0988 39.3882 37.0935 45.125 38V29.563H42.0766V26.073H45.125V23.4131C45.125 20.3875 46.9153 18.7163 49.6574 18.7163C50.9706 18.7163 52.3439 18.9519 52.3439 18.9519V21.9215H50.8303C49.34 21.9215 48.875 22.8523 48.875 23.8069V26.073H52.2031L51.6708 29.563H48.875V38C54.6118 37.0935 59 32.0988 59 26.073Z" fill="#4175DF"/>
</svg>
