<svg width="95" height="52" viewBox="0 0 95 52" fill="none" xmlns="http://www.w3.org/2000/svg">
<rect x="0.5" y="0.5" width="94" height="51" rx="5.5" stroke="#2395FF"/>
<path d="M54.7204 35.1265C52.6391 36.8844 49.9392 38 47 38C42.6266 38 38.7875 35.5906 36.7063 32.075L37.4855 28.4833L40.9391 27.8422C41.7407 30.4296 44.1594 32.3281 47 32.3281C48.3781 32.3281 49.6579 31.8922 50.7125 31.1187L54.0313 31.625L54.7204 35.1265Z" fill="#59C36A"/>
<path d="M54.7203 35.1266L54.0313 31.625L50.7125 31.1188C49.6578 31.8922 48.3781 32.3281 47 32.3281V38C49.9391 38 52.6391 36.8844 54.7203 35.1266Z" fill="#00A66C"/>
<path d="M40.6719 26.0001C40.6719 26.6469 40.7703 27.2656 40.9391 27.8422L36.7062 32.0751C35.6516 30.3032 35 28.2219 35 26.0001C35 23.7781 35.6516 21.6969 36.7062 19.925L40.1034 20.5097L40.9391 24.1579C40.7703 24.7344 40.6719 25.3531 40.6719 26.0001Z" fill="#FFDA2D"/>
<path d="M59 26C59 29.6562 57.3079 32.9328 54.7203 35.1266L50.7125 31.1188C51.5281 30.5281 52.2172 29.7406 52.6672 28.8125H47C46.6062 28.8125 46.2969 28.5031 46.2969 28.1094V23.8906C46.2969 23.4968 46.6062 23.1875 47 23.1875H58.1C58.4375 23.1875 58.7328 23.4265 58.7891 23.764C58.9297 24.4953 59 25.2546 59 26Z" fill="#4086F4"/>
<path d="M52.6672 28.8125C52.2172 29.7406 51.5281 30.5281 50.7125 31.1188L54.7203 35.1266C57.3079 32.9328 59 29.6563 59 26C59 25.2546 58.9297 24.4953 58.789 23.764C58.7328 23.4265 58.4375 23.1875 58.1 23.1875H47V28.8125H52.6672Z" fill="#4175DF"/>
<path d="M54.9172 17.3515C54.9313 17.5484 54.8469 17.7313 54.7204 17.8718L51.711 20.8671C51.472 21.1203 51.0782 21.1484 50.797 20.9375C49.6859 20.1078 48.3781 19.6719 47 19.6719C44.1594 19.6719 41.7407 21.5703 40.9391 24.1578L36.7063 19.925C38.7875 16.4094 42.6266 14 47 14C49.7985 14 52.5266 15.0312 54.6641 16.8312C54.8188 16.9578 54.9032 17.1546 54.9172 17.3515Z" fill="#FF7F23"/>
<path d="M50.7969 20.9375C51.0781 21.1484 51.4718 21.1203 51.7109 20.8671L54.7203 17.8718C54.8469 17.7313 54.9313 17.5484 54.9172 17.3515C54.903 17.1546 54.8187 16.9578 54.664 16.8312C52.5266 15.0312 49.7984 14 47 14V19.6719C48.3781 19.6719 49.6859 20.1078 50.7969 20.9375Z" fill="#F03800"/>
</svg>
