<svg width="22" height="20" viewBox="0 0 22 20" fill="none" xmlns="http://www.w3.org/2000/svg">
<path d="M21.3998 18.0625L11.6498 1.1875C11.5045 0.936719 11.2537 0.8125 11.0006 0.8125C10.7475 0.8125 10.4943 0.936719 10.3514 1.1875L0.601375 18.0625C0.313094 18.5641 0.674031 19.1875 1.25059 19.1875H20.7506C21.3272 19.1875 21.6881 18.5641 21.3998 18.0625ZM10.2506 7.75C10.2506 7.64687 10.335 7.5625 10.4381 7.5625H11.5631C11.6662 7.5625 11.7506 7.64687 11.7506 7.75V12.0625C11.7506 12.1656 11.6662 12.25 11.5631 12.25H10.4381C10.335 12.25 10.2506 12.1656 10.2506 12.0625V7.75ZM11.0006 16C10.7062 15.994 10.4259 15.8728 10.2198 15.6625C10.0137 15.4522 9.89832 15.1695 9.89832 14.875C9.89832 14.5805 10.0137 14.2978 10.2198 14.0875C10.4259 13.8772 10.7062 13.756 11.0006 13.75C11.295 13.756 11.5753 13.8772 11.7814 14.0875C11.9874 14.2978 12.1029 14.5805 12.1029 14.875C12.1029 15.1695 11.9874 15.4522 11.7814 15.6625C11.5753 15.8728 11.295 15.994 11.0006 16Z" fill="#F24545"/>
</svg>
