<svg width="95" height="52" viewBox="0 0 95 52" fill="none" xmlns="http://www.w3.org/2000/svg">
<rect x="0.5" y="0.5" width="94" height="51" rx="5.5" stroke="#2395FF"/>
<path d="M47.5055 25.4509C46.8586 25.4509 46.3337 26.0383 46.3337 26.7634C46.3893 30.7146 45.9362 34.5236 44.9811 38.3326C44.8478 38.8641 45.0861 40 46.11 40C46.6217 40 47.092 39.6216 47.2375 39.0419C47.8981 36.4218 48.7531 32.1835 48.6769 26.7634C48.6774 26.0388 48.153 25.4509 47.5055 25.4509ZM47.4636 20.9813C44.4723 20.9775 42.3849 23.5555 42.4264 26.5097C42.463 29.1314 42.2433 31.7548 41.7735 34.3054C41.6422 35.0152 42.0504 35.7103 42.6837 35.8563C43.3209 36.0023 43.9371 35.5468 44.0685 34.837C44.5734 32.0977 44.8092 29.2818 44.7702 26.4687C44.7501 25.0495 45.7428 23.5981 47.4289 23.6063C48.9577 23.632 50.2194 24.9921 50.2424 26.6398C50.28 29.2676 50.1052 31.9079 49.7243 34.4902C49.6184 35.2045 50.051 35.8804 50.6892 35.9985C51.6643 36.1806 51.9983 35.1727 52.0359 34.9173C52.4402 32.1813 52.6247 29.3824 52.5862 26.5988C52.5432 23.5473 50.2453 21.0273 47.4636 20.9813ZM42.0587 19.8996C41.5558 19.4435 40.8199 19.5277 40.4102 20.0899C39.1593 21.8126 38.4869 23.988 38.5181 26.2149C38.5469 28.2701 38.3975 30.3312 38.0733 32.3427C37.959 33.0563 38.3814 33.7388 39.0186 33.8679C40.0006 34.0593 40.3404 33.058 40.3805 32.8091C40.7315 30.6304 40.8932 28.398 40.8619 26.1739C40.839 24.5398 41.3111 23.0086 42.2291 21.7459C42.6368 21.1837 42.5607 20.3573 42.0587 19.8996ZM47.404 16.4909C46.6515 16.4685 45.8966 16.5697 45.1686 16.7627C44.5392 16.9301 44.1495 17.6366 44.298 18.3427C44.4474 19.0476 45.0792 19.4818 45.7087 19.3177C46.2482 19.175 46.8058 19.1116 47.3688 19.1159C51.052 19.1777 54.094 22.4792 54.1502 26.4758C54.179 28.5473 54.0877 30.638 53.8777 32.6899C53.8044 33.4102 54.2659 34.0615 54.9085 34.1435C55.7249 34.2502 56.1541 33.4938 56.2063 32.9891C56.4282 30.8135 56.5243 28.6242 56.4939 26.4348C56.4178 21.0344 52.3401 16.573 47.404 16.4909ZM59.7122 23.1327C59.5726 22.4262 58.9549 21.9734 58.3152 22.1336C57.6834 22.29 57.284 22.99 57.4236 23.6982C57.6536 24.8691 57.6634 25.7441 57.6531 27.067C57.6478 27.7927 58.1683 28.3844 58.8152 28.3904H58.825C59.4681 28.3904 59.9915 27.8102 59.9969 27.0888C60.0057 25.8759 60.0164 24.6766 59.7122 23.1327ZM57.7532 18.1715C55.3753 14.3767 51.4841 12.0705 47.3439 12.0011C43.9362 11.9552 40.7843 13.3623 38.44 15.9889C36.1758 18.528 34.9556 21.9006 35.0064 25.4887L35.0005 26.6628C34.9815 27.3874 35.4903 27.9923 36.1372 28.013C36.1485 28.0141 36.1607 28.0141 36.1724 28.0141C36.8033 28.0141 37.3243 27.4509 37.3428 26.7399L37.3506 25.4471C37.3101 22.576 38.2862 19.8766 40.0987 17.8455C41.9913 15.7237 44.5587 14.5823 47.3097 14.6266C50.7009 14.683 53.8884 16.5713 55.8362 19.6792C56.2078 20.2731 56.9378 20.4148 57.4681 19.9997C57.9974 19.583 58.1253 18.7643 57.7532 18.1715Z" fill="#2395FF"/>
</svg>
